[Header]
FileType HTR
DataType HTRS
FileVersion 1
NumSegments 28
NumFrames 4
DataFrameRate 24
EulerRotationOrder ZYX
CalibrationUnits mm
RotationUnits Degrees
GlobalAxisofGravity Y
BoneLengthAxis Y
ScaleFactor 1.0
[SegmentNames&Hierarchy]
waist	GLOBAL
chest	waist
head	chest
joint2	chest
right_shoulder1	joint2
right_elbow1	right_shoulder1
right_wrist1	right_elbow1
right_hand1	right_wrist1
right_finger3	right_hand1
right_finger4	right_hand1
right_finger5	right_hand1
joint3	chest
right_shoulder2	joint3
right_elbow2	right_shoulder2
right_wrist2	right_elbow2
right_hand2	right_wrist2
right_finger6	right_hand2
right_finger7	right_hand2
right_finger8	right_hand2
Center_pelvis	waist
left_pelvs	Center_pelvis
left_leg	left_pelvs
left_knee	left_leg
left_foot	left_knee
right_pelvis	Center_pelvis
right_leg	right_pelvis
right_knee	right_leg
right_foot	right_knee
[BasePosition]
waist	0	0	0	179.9999991	0	91.33221985	1
chest	0	0	0	-2.307808268e-010	-1.984983424e-008	1.332219854	1
head	0	0	0	180	-1.481061187e-024	90	1
joint2	0	0	0	4.615476202e-010	-1.707085745e-006	90	1
right_shoulder1	0	0	0	1.916575325e-008	-1.983803253e-008	-88.02506599	1
right_elbow1	0	0	0	-180	-1.948815659e-008	-12.92899665	1
right_wrist1	0	0	0	3.256551172e-010	1.942478841e-008	1.920938916	1
right_hand1	0	0	0	136.2194085	85.17676588	-133.4832578	1
right_finger3	0	0	0	154.4596717	79.84057755	147.6247455	1
right_finger4	0	0	0	154.4596717	79.84057755	147.6247455	1
right_finger5	0	0	0	154.4596717	79.84057755	147.6247455	1
joint3	0	0	0	-180	-1.89575832e-022	90	1
right_shoulder2	0	0	0	6.774897105e-015	-7.012540931e-015	-88.02506599	1
right_elbow2	0	0	0	-180	-6.888863384e-015	-12.92899665	1
right_wrist2	0	0	0	-1.240805042e-012	-7.401196581e-011	1.920938916	1
right_hand2	0	0	0	136.2194085	85.17676588	-133.4832578	1
right_finger6	0	0	0	154.4596717	79.84057755	147.6247455	1
right_finger7	0	0	0	154.4596717	79.84057755	147.6247455	1
right_finger8	0	0	0	154.4596717	79.84057755	147.6247455	1
Center_pelvis	0	0	0	-180	-8.537716493e-007	89.87586122	1
left_pelvs	0	0	0	0	0	-1.456358634	1
left_leg	0	0	0	179.9999991	0	88.69804733	1
left_knee	0	0	0	-180	-7.863991589e-009	-2.076172838	1
left_foot	0	0	0	179.9999985	-3.055580289e-010	-90.77422016	1
right_pelvis	0	0	0	0	0	-2.39554958	1
right_leg	0	0	0	0	0	-87.75885638	1
right_knee	0	0	0	179.9999991	3.702652968e-022	-2.076172838	1
right_foot	0	0	0	180	-7.405305937e-025	-90.77422016	1
[waist]
19	0	-3.152148962	0	1.823863387	-13.80161572	1.340750337	1.0
20	0	-3.152148962	0	1.823863387	-13.80161572	1.340750337	1.0
21	0	-3.152148962	0	1.823863387	-13.80161572	1.340750337	1.0
22	0	-3.152148962	0	1.823863387	-13.80161572	1.340750337	1.0
[chest]
19	26.00589561	-0.2472970486	-4.335428715	26.40620613	14.80459213	2.250660896	1.0
20	26.00589561	-0.2472970486	-4.335428715	21.4848156	14.54212379	1.873464942	1.0
21	26.00589561	-0.2472970486	-4.335428715	16.44607162	14.27731991	1.492912412	1.0
22	26.00589561	-0.2472970486	-4.335428715	11.27631092	14.01107121	1.110283375	1.0
[head]
19	20.62318993	0.1433748305	1.492195129	-5.85692215	-16.39797783	2.336519241	1.0
20	20.62318993	0.1433748305	1.492195129	-4.804728985	-13.45208931	1.916764498	1.0
21	20.62318993	0.1433748305	1.492195129	-3.75364852	-10.50931549	1.497453928	1.0
22	20.62318993	0.1433748305	1.492195129	-2.711771011	-7.592308521	1.081814766	1.0
[joint2]
19	-1.657010078	17.01290512	0.01287616603	-38.06058121	-4.2255826	3.305966139	1.0
20	-1.657010078	17.01290512	0.01287616603	-41.23023987	-3.466458797	2.712050676	1.0
21	-1.657010078	17.01290512	0.01287616603	-44.39654541	-2.708137512	2.118763685	1.0
22	-1.657010078	17.01290512	0.01287616603	-47.53512192	-1.956456423	1.530671239	1.0
[right_shoulder1]
19	15.88686943	0.9015097618	-1.116839528	0	-1.334991813	0	1.0
20	15.71243477	0.851134181	-0.7459315658	0	-5.902296066	0	1.0
21	15.53818607	0.8008121252	-0.3754160106	0	-10.46476841	0	1.0
22	15.36546135	0.7509304285	-0.008144579828	0	-14.98729134	0	1.0
[right_elbow1]
19	-13.64346027	1.083028078	-0.5017899871	0	24.41273117	0	1.0
20	-13.64346027	1.083028078	-0.5017899871	0	21.23003578	0	1.0
21	-13.64346027	1.083028078	-0.5017899871	0	18.05070686	0	1.0
22	-13.64346027	1.083028078	-0.5017899871	0	14.89921665	0	1.0
[right_wrist1]
19	-11.07325459	0.004849368241	0.6145500541	0	13.45306587	0	1.0
20	-11.07325459	0.004849368241	0.6145500541	0	11.03622913	0	1.0
21	-11.07325459	0.004849368241	0.6145500541	0	8.621948242	0	1.0
22	-11.07325459	0.004849368241	0.6145500541	0	6.228806496	0	1.0
[right_hand1]
19	-7.870647907	-0.6475095749	0.1588415354	-0.04685633257	-8.603395462	20.49316597	1.0
20	-7.870647907	-0.6475095749	0.1588415354	0.2155463845	-8.606799126	18.75669098	1.0
21	-7.870647907	-0.6475095749	0.1588415354	0.4776715934	-8.610198975	17.02205276	1.0
22	-7.870647907	-0.6475095749	0.1588415354	0.7375016212	-8.61356926	15.30260372	1.0
[right_finger3]
19	10.07661057	3.347557783	-1.489186764	-81.14940643	24.73603058	91.20425415	1.0
20	10.07661057	3.347557783	-1.489186764	-81.72393036	18.42245293	90.16803741	1.0
21	10.07661057	3.347557783	-1.489186764	-82.29784393	12.11555481	89.13292694	1.0
22	10.07661057	3.347557783	-1.489186764	-82.86673737	5.86387682	88.10686493	1.0
[right_finger4]
19	-1.201135993	3.376283169	11.27149582	-190.1727448	7.329929352	102.5764923	1.0
20	-1.201135993	3.376283169	11.27149582	-188.8153992	9.421181679	110.9723053	1.0
21	-1.201135993	3.376283169	11.27149582	-187.4595032	11.51022148	119.3592453	1.0
22	-1.201135993	3.376283169	11.27149582	-186.1154633	13.58097076	127.6727295	1.0
[right_finger5]
19	-6.853637218	4.493112087	-5.936321735	27.66706085	-4.515084743	94.81976318	1.0
20	-6.853637218	4.493112087	-5.936321735	28.34243774	-0.9563831687	88.92321777	1.0
21	-6.853637218	4.493112087	-5.936321735	29.01709747	2.598554134	83.03290558	1.0
22	-6.853637218	4.493112087	-5.936321735	29.68585014	6.122363567	77.19416809	1.0
[joint3]
19	-1.657010078	-17.01289368	0.01287565939	-10.84518814	20.15195274	-4.125785351	1.0
20	-1.657010078	-17.01289368	0.01287565939	-13.57836056	13.99622059	-2.714975595	1.0
21	-1.657010078	-17.01289368	0.01287565939	-16.30864334	7.847000599	-1.305657744	1.0
22	-1.657010078	-17.01289368	0.01287565939	-19.01501846	1.751623392	0.09131984413	1.0
[right_shoulder2]
19	-14.91590023	-0.6211000085	-0.9477797747	-19.55280304	1273.309814	50.27767944	1.0
20	-14.91590023	-0.6211000085	-0.9477797747	-13.51469326	1269.474365	45.01232529	1.0
21	-14.91590023	-0.6211000085	-0.9477797747	-7.482970238	1265.642822	39.7525444	1.0
22	-14.91590023	-0.6211000085	-0.9477797747	-1.504063249	1261.844971	34.53881454	1.0
[right_elbow2]
19	12.6694479	-0.735652566	-3.148071527	5.699866295	7.25723505	-26.12431526	1.0
20	12.73283482	-0.7189987898	-3.109346628	5.73298502	8.169732094	-24.18579102	1.0
21	12.79615402	-0.702362597	-3.070662975	5.766068459	9.081264496	-22.24931717	1.0
22	12.85892105	-0.6858721375	-3.032318115	5.79886198	9.984815598	-20.32979965	1.0
[right_wrist2]
19	11.85136986	-0.2495054156	0.2257456481	0.6414863467	-11.7866087	-6.566280842	1.0
20	11.85136986	-0.2495054156	0.2257456481	0.5262436271	-12.82306004	-5.386651516	1.0
21	11.85136986	-0.2495054156	0.2257456481	0.4111227989	-13.8584156	-4.208269596	1.0
22	11.85136986	-0.2495054156	0.2257456481	0.2970099151	-14.88470554	-3.040205956	1.0
[right_hand2]
19	8.313048363	0.02588133886	-0.2132965624	13.86277771	26.02487564	-13.98490906	1.0
20	8.313048363	0.02588133886	-0.2132965624	12.55320644	27.26055717	-15.99354553	1.0
21	8.313048363	0.02588133886	-0.2132965624	11.24501991	28.49493217	-18.00005722	1.0
22	8.313048363	0.02588133886	-0.2132965624	9.948287964	29.71849823	-19.98900223	1.0
[right_finger6]
19	-10.07661057	-3.347557783	1.489186764	-83.40117645	27.44624329	89.6120224	1.0
20	-10.07661057	-3.347557783	1.489186764	-83.25064087	29.97852898	89.93466949	1.0
21	-10.07661057	-3.347557783	1.489186764	-83.1002655	32.50813675	90.25697327	1.0
22	-10.07661057	-3.347557783	1.489186764	-82.95121002	35.01559448	90.57646942	1.0
[right_finger7]
19	1.201135993	-3.376283169	-11.27149582	-186.2276154	15.82486248	135.4411774	1.0
20	1.201135993	-3.376283169	-11.27149582	-184.8145142	16.40895844	140.2692413	1.0
21	1.201135993	-3.376283169	-11.27149582	-183.4029236	16.99243546	145.0922089	1.0
22	1.201135993	-3.376283169	-11.27149582	-182.0036926	17.57080269	149.8729401	1.0
[right_finger8]
19	6.853637218	-4.493112087	5.936321735	30.42183304	4.531117916	77.50668335	1.0
20	6.853637218	-4.493112087	5.936321735	30.08946037	7.383603096	73.05243683	1.0
21	6.853637218	-4.493112087	5.936321735	29.75744057	10.23307133	68.60289001	1.0
22	6.853637218	-4.493112087	5.936321735	29.42832756	13.05759048	64.19231415	1.0
[Center_pelvis]
19	-5.616972446	-0.3766000271	2.04698658	0	0	0	1.0
20	-5.616972446	-0.3766000271	2.04698658	0	0	0	1.0
21	-5.616972446	-0.3766000271	2.04698658	0	0	0	1.0
22	-5.616972446	-0.3766000271	2.04698658	0	0	0	1.0
[left_pelvs]
19	11.08986378	-0.01586683653	-0.09214995801	13.88177013	-4.280884743	13.20946217	1.0
20	11.08986378	-0.01586683653	-0.09214995801	9.154998779	-3.433412313	10.59442997	1.0
21	11.08986378	-0.01586683653	-0.09214995801	4.363104343	-2.574263096	7.943366051	1.0
22	11.08986378	-0.01586683653	-0.09214995801	-0.2669131458	-1.744137645	5.381860256	1.0
[left_leg]
19	8.450808053e-008	-5.682914734	0.3641465604	6.69741106	1.15292418	-0.3248090744	1.0
20	8.450808053e-008	-5.682914734	0.3641465604	5.371546745	-9.335000038	-0.260507673	1.0
21	8.450808053e-008	-5.682914734	0.3641465604	4.027414799	-19.96742249	-0.1953203678	1.0
22	8.450808053e-008	-5.682914734	0.3641465604	2.728689909	-30.24066544	-0.1323352009	1.0
[left_knee]
19	-10.69747543	0.03457061574	-6.811455844e-009	13.57127762	-46.60054779	-6.813302517	1.0
20	-10.69747543	0.03457061574	-6.811455844e-009	18.22122574	-45.39056015	-6.606020927	1.0
21	-10.69747543	0.03457061574	-6.811455844e-009	22.93523979	-44.16390228	-6.39588356	1.0
22	-10.69747543	0.03457061574	-6.811455844e-009	27.49000549	-42.97868347	-6.192844868	1.0
[left_foot]
19	-14.54718971	-0.01193539705	1.933258442e-009	-25.99562073	12.19358253	-4.553373337	1.0
20	-14.54718971	-0.01193539705	1.933258442e-009	-22.95061111	16.10094261	-5.95450592	1.0
21	-14.54718971	-0.01193539705	1.933258442e-009	-19.86364937	20.0621357	-7.37494278	1.0
22	-14.54718971	-0.01193539705	1.933258442e-009	-16.88097	23.88951492	-8.747394562	1.0
[right_pelvis]
19	-10.5868988	0.4465443194	0.2088862956	-6.146796703	8.619564105e-017	8.895292282	1.0
20	-10.5868988	0.4465443194	0.2088862956	-3.2902143	6.91317719e-017	7.134320736	1.0
21	-10.5868988	0.4465443194	0.2088862956	-0.394274652	5.183280478e-017	5.349087238	1.0
22	-10.5868988	0.4465443194	0.2088862956	2.403835297	3.511822422e-017	3.624161005	1.0
[right_leg]
19	0.09169664979	-5.593489647	0.06310817599	0.4204657972	20.22973061	-8.385578156	1.0
20	0.09169664979	-5.593489647	0.06310817599	0.3372275531	26.01858521	-6.725512981	1.0
21	0.09169664979	-5.593489647	0.06310817599	0.2528425157	31.88719368	-5.042575836	1.0
22	0.09169664979	-5.593489647	0.06310817599	0.1713081002	37.55754852	-3.416490793	1.0
[right_knee]
19	10.69750977	-0.03459574655	-4.718447855e-015	0	-3.149427414	0	1.0
20	10.69750977	-0.03459574655	-4.718447855e-015	0	-3.371487617	0	1.0
21	10.69750977	-0.03459574655	-4.718447855e-015	0	-3.59660697	0	1.0
22	10.69750977	-0.03459574655	-4.718447855e-015	0	-3.814121246	0	1.0
[right_foot]
19	14.54718685	0.01191107463	1.774880243e-010	1.533616662	0	0	1.0
20	14.54718685	0.01191107463	1.774880243e-010	3.516646385	0	0	1.0
21	14.54718685	0.01191107463	1.774880243e-010	5.526997566	0	0	1.0
22	14.54718685	0.01191107463	1.774880243e-010	7.469435692	0	0	1.0
[EndOfFile]
